<svg width="150" height="147" viewBox="0 0 150 147" fill="none" xmlns="http://www.w3.org/2000/svg">
<ellipse cx="74.9106" cy="73.1267" rx="16.7683" ry="16.9668" fill="#FC4613"/>
<path d="M64.0089 97.1875L55.6743 111.178H64.1821L68.1762 104.133H81.2124L91.2946 121.596H99.8304L85.7383 97.1875H64.0089Z" fill="#FC4613"/>
<path d="M49.2157 75.9289L32.9326 75.706L37.1865 83.074L45.2844 83.0106L51.8025 94.3003L41.7203 111.763L45.9882 119.155L60.0804 94.7471L49.2157 75.9289Z" fill="#FC4613"/>
<path d="M60.2299 52.4886L52.2813 38.2756L48.0274 45.6435L52.1313 52.6248L45.6131 63.9146L25.4487 63.9146L21.1808 71.3068L49.3652 71.3068L60.2299 52.4886Z" fill="#FC4613"/>
<path d="M86.0359 50.3054L94.3705 36.3153L85.8627 36.3153L81.8686 43.36L68.8324 43.36L58.7502 25.8971L50.2144 25.8971L64.3065 50.3054L86.0359 50.3054Z" fill="#FC4613"/>
<path d="M100.829 71.5651L117.112 71.788L112.858 64.42L104.76 64.4834L98.2419 53.1937L108.324 35.7308L104.056 28.3386L89.9641 52.7469L100.829 71.5651Z" fill="#FC4613"/>
<path d="M89.8174 95.0039L97.766 109.217L102.02 101.849L97.916 94.8676L104.434 83.5779L124.599 83.5779L128.866 76.1857L100.682 76.1857L89.8174 95.0039Z" fill="#FC4613"/>
<path d="M114.099 88.3175C117.041 90.0163 124.238 101.275 124.238 101.275C124.238 101.275 110.889 100.671 107.947 98.9726C105.005 97.2738 103.997 93.5115 105.695 90.5692C107.394 87.6269 111.156 86.6188 114.099 88.3175Z" fill="#FC4613"/>
<path d="M81.1744 114.351C81.1744 117.748 75.0227 129.61 75.0227 129.61C75.0227 129.61 68.871 117.748 68.871 114.351C68.871 110.953 71.6252 108.199 75.0227 108.199C78.4202 108.199 81.1744 110.953 81.1744 114.351Z" fill="#FC4613"/>
<path d="M42.2002 98.9102C39.2578 100.609 25.9091 101.212 25.9091 101.212C25.9091 101.212 33.1061 89.9539 36.0485 88.2552C38.9908 86.5564 42.7531 87.5645 44.4518 90.5068C46.1506 93.4492 45.1425 97.2115 42.2002 98.9102Z" fill="#FC4613"/>
<path d="M35.651 58.6179C32.7087 56.9192 25.5116 45.6606 25.5116 45.6606C25.5116 45.6606 38.8603 46.2641 41.8027 47.9629C44.745 49.6616 45.7531 53.4239 44.0543 56.3662C42.3556 59.3085 38.5933 60.3167 35.651 58.6179Z" fill="#FC4613"/>
<path d="M68.8716 32.1767C68.8716 28.7792 75.0233 16.9171 75.0233 16.9171C75.0233 16.9171 81.175 28.7792 81.175 32.1767C81.175 35.5742 78.4208 38.3284 75.0233 38.3284C71.6258 38.3284 68.8716 35.5742 68.8716 32.1767Z" fill="#FC4613"/>
<path d="M108.528 48.0235C111.47 46.3247 124.819 45.7212 124.819 45.7212C124.819 45.7212 117.622 56.9798 114.68 58.6785C111.738 60.3773 107.975 59.3692 106.277 56.4269C104.578 53.4846 105.586 49.7222 108.528 48.0235Z" fill="#FC4613"/>
</svg>
